<svg width="339" height="36" viewBox="0 0 339 36" fill="none" xmlns="http://www.w3.org/2000/svg">
<g clip-path="url(#clip0)">
<path d="M20.4917 0.0237122H36.3461V7.01587H19.4624C16.415 7.01587 14.1042 7.57328 12.5301 8.68808C10.3865 9.80465 8.74605 11.9595 7.6088 15.1527C7.37888 16.0687 7.25252 17.0073 7.23207 17.9512C7.23207 20.6626 8.25348 23.2122 10.2963 25.6001C11.6334 26.8819 12.8891 27.7304 14.0635 28.1453C15.3511 28.7238 17.1189 29.0131 19.3669 29.0131H36.3461V36.0026H20.1628C16.0259 36.0026 12.9617 35.5032 10.9701 34.5045C6.51841 32.5703 3.32951 29.4052 1.40344 25.0093C0.463284 22.7909 -0.0141669 20.4059 1.14218e-06 17.9987C1.14218e-06 12.6427 2.13478 8.07089 6.40434 4.28336C9.19883 2.17508 11.7262 0.930152 13.9866 0.548586C15.1433 0.200428 17.3117 0.0254705 20.4917 0.0237122ZM17.4275 14.554H36.3461V21.4697H17.4275V14.554Z" fill="white"/>
<path d="M60.0294 16.6852V21.8917H41.6707V16.6852H60.0294Z" fill="white"/>
<path d="M61.5708 0.0501099H81.7123C89.0099 0.0501099 94.0744 3.22045 96.9061 9.56114C97.6009 11.3786 97.95 13.3087 97.9354 15.253C97.9354 19.4731 96.2782 23.1657 92.9637 26.3307C90.9209 28.1278 88.4174 29.3428 85.4531 29.9758C84.3054 30.1366 83.1472 30.2115 81.9883 30.2L68.8294 30.3504V35.9921H61.5204V23.2421H81.4179C84.0143 23.2421 85.9147 22.7595 87.1192 21.7941C88.6597 20.813 89.7651 19.2304 90.4354 17.0465C90.5517 16.546 90.6183 16.0354 90.6344 15.522V14.7703C90.6344 12.8889 89.8226 11.0584 88.1989 9.27892C86.5081 7.80013 84.6333 7.05985 82.5746 7.0581H61.5708V0.0501099Z" fill="white"/>
<path d="M101.697 0.0501099H108.98V17.0518C108.98 21.8117 110.813 25.2731 114.479 27.4359C116.087 28.4909 118.222 29.0184 120.884 29.0184H138.11V36.0079H121.131C116.532 36.0079 112.857 35.0505 110.105 33.1356C109.339 32.7488 108.187 31.8142 106.65 30.3319C104.659 28.1023 103.311 25.856 102.607 23.5929C102.006 21.8785 101.704 19.423 101.703 16.2262L101.697 0.0501099Z" fill="white"/>
<path d="M161.568 0H178.281V36H171.031V7.0159L164.552 7.03964H162.995C159.378 7.03964 157.369 7.18998 156.967 7.49066C154.776 8.09167 152.848 9.39994 151.486 11.2096C149.878 13.4955 149.075 15.7673 149.075 18.0251C149.075 20.8209 150.163 23.3925 152.34 25.7399C153.798 27.122 155.054 27.9537 156.108 28.235C157.169 28.7625 158.985 29.0263 161.557 29.0263H166.598V35.9921H160.559C156.072 35.9921 152.28 34.8184 149.183 32.471C146.941 30.7126 145.443 29.1151 144.689 27.6785C142.813 24.7174 141.875 21.6886 141.877 18.5921V17.5371C141.877 13.2115 143.509 9.242 146.774 5.62854C148.748 3.72599 150.363 2.52414 151.619 2.02301C152.81 1.41196 154.065 0.934275 155.362 0.598725C156.784 0.199575 158.853 0 161.568 0Z" fill="white"/>
<path d="M196.696 36V30.1077C193.779 29.3322 191.053 27.9725 188.684 26.1118C186.692 24.3323 185.395 22.8509 184.792 21.6675C183.954 20.33 183.304 18.8855 182.858 17.3736C182.327 15.7102 182.062 13.4463 182.062 10.5819V0.0501099H189.344V10.9089C189.344 14.074 189.964 16.5129 191.202 18.2255C191.451 18.7741 192.254 19.648 193.611 20.8472C195.485 22.3804 197.838 23.2186 200.266 23.2186C202.693 23.2186 205.046 22.3804 206.921 20.8472C208.277 19.6463 209.081 18.7724 209.332 18.2255C210.57 16.5111 211.189 14.0722 211.189 10.9089V0.0501099H218.472V10.5845C218.472 13.4489 218.206 15.7128 217.676 17.3762C217.246 18.8939 216.594 20.3406 215.742 21.6702C215.14 22.8518 213.852 24.3332 211.876 26.1144C209.496 27.9706 206.763 29.3289 203.84 30.1077V36H196.696Z" fill="white"/>
<path d="M242.723 0.0237122H258.569V7.01587H241.688C238.642 7.01587 236.333 7.57328 234.758 8.68808C232.615 9.80465 230.974 11.9595 229.837 15.1527C229.607 16.0687 229.481 17.0073 229.46 17.9512C229.46 20.6626 230.481 23.2122 232.522 25.6001C233.861 26.8819 235.117 27.7304 236.289 28.1453C237.579 28.7274 239.347 29.0192 241.595 29.021H258.574V36.0105H242.391C238.258 36.0105 235.194 35.5111 233.201 34.5124C228.748 32.5782 225.559 29.4131 223.634 25.0172C222.691 22.7977 222.213 20.4106 222.228 18.0013C222.228 12.6453 224.362 8.07353 228.63 4.286C231.43 2.17596 233.96 0.930152 236.22 0.548586C237.375 0.200428 239.543 0.0254705 242.723 0.0237122ZM239.661 14.554H258.569V21.4697H239.661V14.554Z" fill="white"/>
<path d="M262.411 0.0237122H285.664C289.775 0.0237122 292.989 1.24666 295.308 3.69255C296.206 4.47418 296.94 5.42426 297.467 6.48836C298.328 8.117 298.793 9.92384 298.823 11.7635V12.7868C298.823 15.4244 297.673 17.996 295.374 20.5017C293.901 21.9084 292.562 22.8069 291.357 23.1973C294.403 26.4292 295.926 30.6985 295.926 36.0052H288.62V35.4566C288.62 31.5284 287.021 28.4073 283.823 26.0933C281.998 24.8115 279.61 24.1705 276.66 24.1705H262.411V17.2258H286.115C288.71 17.2258 290.468 15.9528 291.389 13.4067C291.49 12.8792 291.556 12.4571 291.591 12.109C291.591 10.6935 290.997 9.41165 289.808 8.26343C288.891 7.50219 287.737 7.0792 286.542 7.06599C286.542 7.00005 286.192 6.96576 285.481 6.96576H262.4L262.411 0.0237122Z" fill="white"/>
<path d="M314.091 0.050115H338.472V7.43527H313.863C311.94 7.43527 310.761 8.37512 310.324 10.2548V10.7823C310.324 11.8971 310.952 12.8291 312.207 13.5781C312.591 13.7279 313 13.804 313.412 13.8023H325.788C328.972 13.8023 331.131 14.1267 332.267 14.7756C335.081 16.0258 337.026 17.9319 338.103 20.4938C338.686 21.9654 338.993 23.5307 339.008 25.1122C339.008 28.7063 337.317 31.7351 333.935 34.1985C332.862 34.8605 331.694 35.3576 330.471 35.6729C329.5 35.8892 327.884 35.9974 325.624 35.9974H302.622L302.596 28.6122H327.306C329.382 28.6122 330.709 27.5967 331.285 25.5658L331.336 24.8933C331.336 23.4602 330.628 22.3612 329.213 21.5963C328.61 21.3096 327.947 21.1729 327.279 21.198H313.393C309.76 21.198 306.731 19.6155 304.304 16.4504C303.291 14.8576 302.74 13.0175 302.712 11.1331V10.1572C302.712 6.46465 304.521 3.544 308.138 1.39527C309.629 0.496741 311.613 0.0483566 314.091 0.050115Z" fill="white"/>
</g>
<defs>
<clipPath id="clip0">
<rect width="339" height="36" fill="white"/>
</clipPath>
</defs>
</svg>
